<?xml version="1.0" encoding="UTF-8" ?>
<!DOCTYPE svg PUBLIC "-//W3C//DTD SVG 1.1//EN" "http://www.w3.org/Graphics/SVG/1.1/DTD/svg11.dtd">
<svg width="150pt" height="150pt" viewBox="0 0 150 150" version="1.1" xmlns="http://www.w3.org/2000/svg">
<g id="#5cbd6dff">
<path fill="#5cbd6d" opacity="1.00" d=" M 36.14 11.09 C 51.26 1.90 69.71 -1.60 87.15 1.30 C 105.31 4.14 122.19 14.05 133.65 28.39 C 143.16 40.07 148.78 54.71 150.00 69.70 L 150.00 80.62 C 148.81 96.27 142.70 111.52 132.49 123.47 C 119.65 138.85 100.40 148.55 80.44 150.00 L 69.55 150.00 C 53.38 148.78 37.66 142.27 25.46 131.57 C 10.69 118.79 1.39 100.06 0.00 80.59 L 0.00 69.65 C 1.71 45.80 15.57 23.29 36.14 11.09 M 65.07 11.15 C 40.78 14.67 19.52 33.21 12.68 56.78 C 7.51 73.73 9.86 92.76 18.94 107.97 C 26.67 121.05 39.06 131.35 53.42 136.35 C 67.23 141.27 82.74 141.28 96.55 136.36 C 115.11 129.92 130.38 114.58 136.58 95.91 C 141.29 82.34 141.14 67.18 136.30 53.66 C 130.25 36.47 116.56 22.19 99.71 15.28 C 88.83 10.74 76.71 9.44 65.07 11.15 Z" />
<path fill="#5cbd6d" opacity="1.00" d=" M 70.25 29.25 C 73.17 29.25 76.08 29.25 78.99 29.25 C 79.08 46.50 78.85 63.76 79.10 81.00 C 79.96 84.73 84.46 83.62 87.25 83.77 C 87.37 78.89 87.02 73.99 87.42 69.12 C 88.13 63.49 93.22 58.95 98.88 58.79 C 105.57 58.69 112.27 58.75 118.97 58.77 C 124.81 58.61 130.30 63.18 131.08 68.98 C 131.43 73.01 131.26 77.07 131.21 81.10 C 131.06 87.02 125.87 92.25 119.96 92.48 C 112.73 92.57 105.50 92.45 98.27 92.51 C 98.25 89.59 98.25 86.67 98.25 83.76 C 105.15 83.69 112.04 83.84 118.94 83.71 C 120.96 83.79 122.55 81.91 122.45 79.94 C 122.57 76.98 122.62 74.01 122.40 71.05 C 122.41 68.79 120.11 67.24 117.99 67.51 C 112.01 67.50 106.02 67.44 100.04 67.55 C 98.14 67.45 95.96 68.95 96.26 71.03 C 96.22 87.68 96.27 104.34 96.25 121.00 C 93.25 121.00 90.25 121.00 87.25 120.99 C 87.26 111.50 87.25 102.00 87.25 92.51 C 84.86 92.50 82.45 92.63 80.07 92.34 C 74.71 91.53 70.28 86.55 70.26 81.10 C 70.23 63.82 70.26 46.54 70.25 29.25 Z" />
<path fill="#5cbd6d" opacity="1.00" d=" M 23.34 64.72 C 22.08 57.67 27.54 50.16 34.89 50.07 C 44.92 49.89 54.96 50.06 65.00 50.00 C 65.00 52.92 65.00 55.83 64.99 58.75 C 55.34 58.80 45.68 58.63 36.03 58.82 C 31.43 58.27 30.63 66.12 34.98 66.83 C 42.02 67.29 49.11 66.80 56.17 67.04 C 61.74 67.34 66.58 72.21 66.97 77.77 C 68.29 84.66 63.12 92.14 55.94 92.47 C 43.55 92.55 31.15 92.47 18.75 92.50 C 18.75 89.58 18.75 86.67 18.75 83.75 C 30.83 83.69 42.91 83.86 54.98 83.68 C 58.97 83.59 59.47 77.19 55.93 75.89 C 48.74 75.46 41.51 76.00 34.30 75.66 C 28.63 75.21 23.83 70.38 23.34 64.72 Z" />
</g>
</svg>
