<?xml version="1.0" encoding="UTF-8" standalone="no"?>
<svg
   xmlns:dc="http://purl.org/dc/elements/1.1/"
   xmlns:cc="http://creativecommons.org/ns#"
   xmlns:rdf="http://www.w3.org/1999/02/22-rdf-syntax-ns#"
   xmlns:svg="http://www.w3.org/2000/svg"
   xmlns="http://www.w3.org/2000/svg"
   xmlns:sodipodi="http://sodipodi.sourceforge.net/DTD/sodipodi-0.dtd"
   xmlns:inkscape="http://www.inkscape.org/namespaces/inkscape"
   inkscape:export-ydpi="96"
   inkscape:export-xdpi="96"
   inkscape:export-filename="electron-cash-full-white.png"
   inkscape:version="1.0 (4035a4fb49, 2020-05-01)"
   sodipodi:docname="electron-cash-full-white.svg"
   id="svg45"
   version="1.1"
   viewBox="0 0 805 224.99999"
   height="300"
   width="1073.3334">
  <metadata
     id="metadata51">
    <rdf:RDF>
      <cc:Work
         rdf:about="">
        <dc:format>image/svg+xml</dc:format>
        <dc:type
           rdf:resource="http://purl.org/dc/dcmitype/StillImage" />
        <dc:title />
      </cc:Work>
    </rdf:RDF>
  </metadata>
  <defs
     id="defs49" />
  <sodipodi:namedview
     inkscape:current-layer="svg45"
     inkscape:window-maximized="1"
     inkscape:window-y="-9"
     inkscape:window-x="-9"
     inkscape:cy="107.8243"
     inkscape:cx="393.23823"
     inkscape:zoom="0.66801242"
     inkscape:pagecheckerboard="true"
     inkscape:showpageshadow="false"
     borderlayer="true"
     showgrid="false"
     id="namedview47"
     inkscape:window-height="1007"
     inkscape:window-width="1920"
     inkscape:pageshadow="2"
     inkscape:pageopacity="0"
     guidetolerance="10"
     gridtolerance="10"
     objecttolerance="10"
     borderopacity="1"
     bordercolor="#666666"
     pagecolor="#ffffff"
     inkscape:document-rotation="0"
     inkscape:snap-intersection-paths="true"
     inkscape:snap-smooth-nodes="true"
     inkscape:object-paths="true"
     units="px" />
  <g
     style="fill:#ffffff"
     id="g902">
    <g
       aria-label="CASH"
       id="text865-1"
       style="font-style:normal;font-weight:normal;font-size:112.344px;line-height:1.25;font-family:sans-serif;letter-spacing:0px;word-spacing:0px;fill:#ffffff;fill-opacity:1;stroke:none;stroke-width:2.80861"
       transform="translate(3.4886298e-4,-1.7843652e-4)">
      <path
         id="path892-1"
         style="font-style:normal;font-variant:normal;font-weight:normal;font-stretch:normal;font-family:'Future Earth';-inkscape-font-specification:'Future Earth';fill:#ffffff;fill-opacity:1;stroke-width:3.74481"
         d="m 166.86719,139.39062 c -10.33721,10e-6 -19.1625,3.70561 -26.47657,11.11719 -7.31406,7.21654 -10.9707,15.99482 -10.9707,26.33203 h 56.17188 110.73437 v -37.44922 z m -37.44727,56.49805 v 55.84571 c 0,10.3372 3.65664,19.16445 10.9707,26.47851 7.21655,7.31406 16.04184,10.9707 26.47657,10.9707 H 297.93555 V 251.73438 H 185.5918 c -5.16861,0 -9.60672,-1.80384 -13.3125,-5.41211 -3.60828,-3.70579 -5.41211,-8.14195 -5.41211,-13.31055 v -37.12305 z"
         transform="scale(0.74999999)" />
      <path
         id="path894-3"
         style="font-style:normal;font-variant:normal;font-weight:normal;font-stretch:normal;font-family:'Future Earth';-inkscape-font-specification:'Future Earth';fill:#ffffff;fill-opacity:1;stroke-width:3.74481"
         d="m 419.64258,137.05078 c -12.97028,0.39009 -23.11367,4.29154 -30.42774,11.70313 -2.43801,2.34049 -4.7785,5.46049 -7.02148,9.36132 l -65.5332,131.06836 h 46.80859 l 14.04297,-28.08593 14.04492,-28.08594 24.28125,-48.71289 c 1.07274,-1.65786 2.34188,-2.48633 3.80469,-2.48633 1.46281,0 2.68104,0.82847 3.65625,2.48633 l 24.42969,48.71289 h -37.12305 l -14.04297,28.08594 h 65.20898 l 14.04297,28.08593 h 46.8086 L 457.08984,158.11523 c -2.24297,-3.90083 -4.58345,-7.02083 -7.02148,-9.36132 -7.21653,-7.41159 -17.35799,-11.31304 -30.42578,-11.70313 z"
         transform="scale(0.74999999)" />
      <path
         d="m 402.50002,216.88733 v -28.086 h 108.83325 q 2.85248,0 4.93699,-1.9748 2.08451,-2.08451 2.08451,-5.0467 0,-2.85249 -2.08451,-4.93699 -2.08451,-2.08451 -4.93699,-2.08451 h -91.2795 q -5.81468,0 -9.9837,-4.05931 -4.0593,-4.16901 -4.0593,-9.98369 v -42.01929 q 0,-5.81468 4.0593,-9.9837 4.16902,-4.16901 9.9837,-4.16901 h 122.87625 v 28.086 H 441.11827 q -2.9622,0 -5.04671,2.08451 -1.97479,2.0845 -1.97479,4.93699 0,2.96219 1.97479,5.0467 2.08451,1.9748 5.04671,1.9748 h 91.2795 q 5.70497,0 9.87398,4.16901 4.16902,4.16902 4.16902,9.87399 v 42.129 q 0,5.81468 -4.16902,9.98369 -4.16901,4.05931 -9.87398,4.05931 z"
         style="font-style:normal;font-variant:normal;font-weight:normal;font-stretch:normal;font-family:'Future Earth';-inkscape-font-specification:'Future Earth';fill:#ffffff;fill-opacity:1;stroke-width:2.80861"
         id="path896-9" />
      <path
         id="path898-0"
         style="font-style:normal;font-variant:normal;font-weight:normal;font-stretch:normal;font-family:'Future Earth';-inkscape-font-specification:'Future Earth';fill:#ffffff;fill-opacity:1;stroke-width:3.74481"
         d="m 793.79688,139.39062 c -24.45503,0.0814 -37.20012,12.07858 -37.12305,37.12305 h 37.44726 v -37.12305 z m 112.66796,0 v 56.17188 h -77.27148 -35.07227 -37.44726 v 93.62109 h 37.44726 v -56.17187 h 112.34375 v 56.17187 h 37.44922 V 139.39062 Z"
         transform="scale(0.74999999)" />
    </g>
    <g
       style="fill:#ffffff"
       id="g886">
      <path
         d="m 34.148786,9.2283374 c -4.929967,0 -9.140234,1.7680406 -12.628418,5.3027336 -3.488183,3.441675 -5.232422,7.626673 -5.232422,12.556641 h 22.325684 55.042968 0.76758 V 9.2283374 Z M 16.287946,36.0174 v 26.790526 c 0,4.929967 1.744239,9.138768 5.232422,12.626955 3.441675,3.488182 7.651942,5.232419 12.628418,5.232419 H 96.656598 V 62.807926 H 38.61363 c -1.255746,0 -2.3258,-0.419671 -3.209473,-1.256836 -0.837164,-0.883672 -1.255371,-1.953726 -1.255371,-3.209473 V 53.876774 H 60.640319 C 72.405292,53.837594 78.536793,48.065932 78.49969,36.0174 H 34.148786 Z"
         style="font-style:normal;font-variant:normal;font-weight:normal;font-stretch:normal;font-size:71.438px;line-height:1.25;font-family:'Future Earth';-inkscape-font-specification:'Future Earth';letter-spacing:0px;word-spacing:0px;fill:#ffffff;fill-opacity:1;stroke:none;stroke-width:1.78596"
         id="path875-3"
         sodipodi:nodetypes="sccccccscscsccscsccccc" />
      <path
         d="m 127.91053,80.666707 q -7.46471,0 -12.62722,-5.232275 -5.23228,-5.232276 -5.23228,-12.627226 V 9.2287034 h 17.8595 V 53.877456 q 0,3.697475 2.58126,6.348495 2.65102,2.581255 6.34849,2.581255 h 53.5785 v 17.859501 z"
         style="font-style:normal;font-variant:normal;font-weight:normal;font-stretch:normal;font-size:71.438px;line-height:1.25;font-family:'Future Earth';-inkscape-font-specification:'Future Earth';letter-spacing:0px;word-spacing:0px;fill:#ffffff;fill-opacity:1;stroke:none;stroke-width:1.78596"
         id="path877-9" />
      <path
         d="m 315.4354,9.2283374 c -4.92996,0 -9.13876,1.7680406 -12.62695,5.3027336 -3.48818,3.441675 -5.23242,7.626674 -5.23242,12.556641 h 26.78906 26.40527 26.40528 V 9.2283374 Z M 297.57603,36.0174 v 26.790526 c 0,4.929967 1.74424,9.138769 5.23242,12.626955 3.44168,3.488182 7.65048,5.232419 12.62695,5.232419 h 62.50782 V 62.807926 h -53.57813 c -2.46499,0 -4.58128,-0.861683 -6.34864,-2.582519 -1.72083,-1.767347 -2.58105,-3.88365 -2.58105,-6.348633 V 36.0174 Z"
         style="font-style:normal;font-variant:normal;font-weight:normal;font-stretch:normal;font-size:71.438px;line-height:1.25;font-family:'Future Earth';-inkscape-font-specification:'Future Earth';letter-spacing:0px;word-spacing:0px;fill:#ffffff;fill-opacity:1;stroke:none;stroke-width:1.78596"
         id="path881-5" />
      <path
         d="M 386.8729,9.2283374 V 27.087712 h 35.71875 17.86084 35.71875 V 9.2283374 Z M 422.59165,36.0174 v 44.6499 h 17.86084 V 36.0174 Z"
         style="font-style:normal;font-variant:normal;font-weight:normal;font-stretch:normal;font-size:71.438px;line-height:1.25;font-family:'Future Earth';-inkscape-font-specification:'Future Earth';letter-spacing:0px;word-spacing:0px;fill:#ffffff;fill-opacity:1;stroke:none;stroke-width:1.78596"
         id="path883-3" />
      <path
         d="M 485.10093,9.2283374 V 27.087712 h 17.85937 49.11329 22.32421 v -8.929687 c 0,-2.418475 -0.88402,-4.510974 -2.65137,-6.278321 -1.76734,-1.767346 -3.85984,-2.6513666 -6.27832,-2.6513666 z m 0,26.7890626 V 80.6673 H 502.9603 V 53.876774 h 46.88086 c 2.41847,0 4.51098,0.88402 6.27832,2.651367 0.9767,0.976692 1.67469,2.070549 2.09326,3.279786 l 3.48779,20.859373 h 19.39454 l -4.46485,-17.859374 c -0.5581,-2.139419 -1.0924,-3.837515 -1.604,-5.093261 -0.41858,-1.06971 -0.88439,-1.929927 -1.396,-2.581055 -0.65113,-0.930182 -1.41759,-1.814203 -2.30127,-2.651368 -1.5348,-1.581309 -3.23289,-2.813592 -5.09326,-3.697265 1.02321,-0.651128 1.97717,-1.4414 2.86084,-2.371582 2.99297,-2.914211 4.71367,-6.381375 5.17237,-10.395995 H 552.07359 502.9603 Z"
         style="font-style:normal;font-variant:normal;font-weight:normal;font-stretch:normal;font-size:71.438px;line-height:1.25;font-family:'Future Earth';-inkscape-font-specification:'Future Earth';letter-spacing:0px;word-spacing:0px;fill:#ffffff;fill-opacity:1;stroke:none;stroke-width:1.78596"
         id="path885-5" />
      <path
         d="m 650.30093,62.807206 q 3.62771,0 6.27873,-2.581255 2.65102,-2.65102 2.65102,-6.348495 V 36.017955 q 0,-3.627711 -2.65102,-6.278731 -2.65102,-2.651019 -6.27873,-2.651019 h -35.719 q -3.69748,0 -6.3485,2.651019 -2.58125,2.65102 -2.58125,6.278731 v 17.859501 q 0,3.697475 2.58125,6.348495 2.65102,2.581255 6.3485,2.581255 z m -44.64875,17.859501 q -7.46472,0 -12.62723,-5.232275 -5.23227,-5.232276 -5.23227,-12.627226 V 27.088205 q 0,-7.39495 5.23227,-12.557462 5.23228,-5.3020396 12.62723,-5.3020396 h 53.5785 q 7.39495,0 12.55746,5.3020396 5.30204,5.232276 5.30204,12.557462 v 35.719001 q 0,7.464714 -5.30204,12.627226 -5.23227,5.232275 -12.55746,5.232275 z"
         style="font-style:normal;font-variant:normal;font-weight:normal;font-stretch:normal;font-size:71.438px;line-height:1.25;font-family:'Future Earth';-inkscape-font-specification:'Future Earth';letter-spacing:0px;word-spacing:0px;fill:#ffffff;fill-opacity:1;stroke:none;stroke-width:1.78596"
         id="path887-1" />
      <path
         d="M 690.48481,80.666707 V 25.971986 q 0,-7.39495 5.23228,-12.557462 5.23228,-5.3020394 12.62723,-5.3020394 v 0 q 8.09258,0.4185821 13.39462,5.5810944 1.67433,1.534801 44.64875,44.648752 1.67433,1.674328 3.34866,0 1.11622,-1.395273 1.11622,-3.348656 V 9.2287034 h 17.8595 V 63.923425 q 0,7.464714 -5.30204,12.627226 -5.23228,5.232275 -12.55746,5.232275 v 0 q -8.09259,-0.558109 -13.39463,-5.581094 -1.67433,-1.534801 -44.64875,-44.648752 -1.67433,-1.674328 -3.34866,0 -1.11621,1.395273 -1.11621,3.348656 v 45.764971 z"
         style="font-style:normal;font-variant:normal;font-weight:normal;font-stretch:normal;font-size:71.438px;line-height:1.25;font-family:'Future Earth';-inkscape-font-specification:'Future Earth';letter-spacing:0px;word-spacing:0px;fill:#ffffff;fill-opacity:1;stroke:none;stroke-width:1.78596"
         id="path889-6" />
      <path
         sodipodi:nodetypes="sccccccscscsccscsccccc"
         id="path876"
         style="font-style:normal;font-variant:normal;font-weight:normal;font-stretch:normal;font-size:71.438px;line-height:1.25;font-family:'Future Earth';-inkscape-font-specification:'Future Earth';letter-spacing:0px;word-spacing:0px;fill:#ffffff;fill-opacity:1;stroke:none;stroke-width:1.78596"
         d="m 221.67222,9.228337 c -4.92997,0 -9.14024,1.76804 -12.62842,5.30273 -3.48819,3.44168 -5.23242,7.62668 -5.23242,12.55664 h 22.32568 55.04297 0.76758 V 9.228337 Z m -17.86084,26.78906 v 26.790529 c 0,4.929967 1.74423,9.138768 5.23242,12.626955 3.44167,3.488182 7.65194,5.232419 12.62842,5.232419 h 62.50781 V 62.807926 h -58.04297 c -1.25575,0 -2.3258,-0.419671 -3.20947,-1.256836 -0.83717,-0.883672 -1.25537,-1.953726 -1.25537,-3.209473 v -4.464843 h 26.49153 c 11.76497,-0.03918 17.89647,-5.810842 17.85937,-17.859377 h -44.3509 z" />
    </g>
  </g>
</svg>
