<?xml version="1.0" encoding="UTF-8" standalone="no"?>
<svg
   xmlns:dc="http://purl.org/dc/elements/1.1/"
   xmlns:cc="http://creativecommons.org/ns#"
   xmlns:rdf="http://www.w3.org/1999/02/22-rdf-syntax-ns#"
   xmlns:svg="http://www.w3.org/2000/svg"
   xmlns="http://www.w3.org/2000/svg"
   xmlns:sodipodi="http://sodipodi.sourceforge.net/DTD/sodipodi-0.dtd"
   xmlns:inkscape="http://www.inkscape.org/namespaces/inkscape"
   inkscape:export-ydpi="96"
   inkscape:export-xdpi="96"
   inkscape:export-filename="electron-cash-mark.png"
   id="Layer_1"
   x="0"
   y="0"
   enable-background="new 0 0 4023.3 505.3"
   version="1.1"
   viewBox="0 0 1024 1024"
   xml:space="preserve"
   sodipodi:docname="electron-cash-mark.svg"
   width="1024"
   height="1024"
   inkscape:version="1.0 (4035a4fb49, 2020-05-01)"><metadata
     id="metadata40"><rdf:RDF><cc:Work
         rdf:about=""><dc:format>image/svg+xml</dc:format><dc:type
           rdf:resource="http://purl.org/dc/dcmitype/StillImage" /><dc:title>6-bitcoin-cash-logo-horizontal</dc:title></cc:Work></rdf:RDF></metadata><defs
     id="defs38" /><sodipodi:namedview
     inkscape:snap-smooth-nodes="true"
     inkscape:snap-intersection-paths="true"
     inkscape:document-rotation="0"
     pagecolor="#ffffff"
     bordercolor="#666666"
     borderopacity="1"
     objecttolerance="10"
     gridtolerance="10"
     guidetolerance="10"
     inkscape:pageopacity="0"
     inkscape:pageshadow="2"
     inkscape:window-width="1646"
     inkscape:window-height="1033"
     id="namedview36"
     showgrid="false"
     inkscape:showpageshadow="false"
     borderlayer="true"
     inkscape:pagecheckerboard="true"
     inkscape:zoom="0.39550782"
     inkscape:cx="477.12109"
     inkscape:cy="634.36581"
     inkscape:window-x="189"
     inkscape:window-y="63"
     inkscape:window-maximized="0"
     inkscape:current-layer="Layer_1"
     inkscape:snap-page="true" /><style
     type="text/css"
     id="style2">.st0{fill:#4d4d4d}.st1{fill:#0ac18e}.st2{fill:#fff}</style><title
     id="title4">6-bitcoin-cash-logo-horizontal</title><style
     id="style865"
     type="text/css">.st0{fill:#4d4d4d}.st1{fill:#0ac18e}.st2{fill:#fff}</style><rect
     style="fill:#0056c0;fill-opacity:1;stroke:none;stroke-width:18.8976;stroke-linecap:square;stroke-linejoin:round;paint-order:markers stroke fill"
     id="rect1062"
     width="1024"
     height="1024"
     x="0"
     y="0" /><g
     id="g875"><g
       style="fill:#ffffff;fill-opacity:1"
       transform="matrix(1.2508027,0,0,1.2508027,2147.7365,-228.65792)"
       id="g1066"><path
         sodipodi:nodetypes="ccccccccc"
         fill="#0056c0"
         opacity="1"
         d="m -1593.4042,438.79468 c 84.8285,0 169.657,0.062 254.4854,-0.031 8.5813,-1.2611 14.8558,5.444 21.4686,9.6577 0,23.3755 0,46.7818 0.031,70.188 -5.9362,3.5679 -10.8573,10.4267 -18.2698,10.3037 -84.2749,0 -168.5497,0 -252.8245,0.062 -7.5355,0.5537 -12.8258,-5.9669 -18.5774,-9.8423 0.2768,-23.2217 0,-46.4434 0.1538,-69.6651 4.5521,-3.5064 9.0426,-7.0742 13.5332,-10.6728"
         id="path952"
         style="fill:#ffffff;fill-opacity:1;stroke-width:3.07572" /><path
         sodipodi:nodetypes="cccccccccccccc"
         fill="#0056c0"
         opacity="1"
         d="m -1606.9989,562.31578 c 4.6136,-3.6294 9.2272,-7.228 13.7793,-10.9189 81.9065,0.2769 163.7823,-0.3383 245.658,0.4614 -2.9834,30.3266 -20.2997,59.546 -47.8582,73.5713 -33.4639,17.6547 -72.5256,11.3187 -108.8191,12.7335 v 28.4505 c 57.6698,0.123 115.3396,0.061 173.0094,0.4613 4.4598,4.9827 9.0734,9.8731 13.7177,14.7327 -0.1845,18.6389 0.4614,37.3086 -0.1537,55.9167 -3.937,4.9519 -9.1965,8.6428 -13.9023,12.795 -79.3844,-0.2461 -158.7996,-0.061 -238.184,-0.092 -7.9047,-0.246 -15.9938,0.769 -23.7754,-0.6459 -4.7981,-2.8912 -9.0734,-6.4898 -13.4717,-9.9038 0.031,-59.1769 0.031,-118.3846 0,-177.5615"
         id="path974"
         style="fill:#ffffff;fill-opacity:1;stroke-width:3.07572" /></g><path
       sodipodi:nodetypes="ccccccccccccccc"
       style="fill:#ffffff;fill-opacity:1;stroke-width:2.39703"
       id="path982"
       d="m 664.18892,333.59372 c 20.99798,-9.7559 44.27305,-13.25559 67.26054,-13.35145 51.41612,-0.19179 102.83238,-0.28766 154.22461,-0.28766 -0.28769,36.09922 0.0237,72.19842 -0.14385,108.29765 -48.18016,-0.19173 -96.36047,-0.11984 -144.54064,-0.1678 -53.93311,-2.68467 -97.12745,57.6245 -82.36173,108.36957 8.34161,27.25412 29.21976,49.6903 54.58028,62.25072 7.86218,3.78735 16.68321,5.27348 25.38442,5.12969 49.28287,-0.23973 98.54174,-0.0241 147.82461,-0.21581 -0.0475,35.49999 -0.0237,70.97597 -0.0237,106.47591 H 753.1668 c -20.66239,0.0713 -41.73229,0.57537 -61.74738,-5.39333 -49.66637,-13.68704 -91.80617,-49.09104 -117.55019,-93.29224 -21.26164,-34.9486 -29.84303,-76.84866 -25.74415,-117.43029 8.10207,-68.45902 53.0463,-131.83636 116.06412,-160.38496"
       opacity="1"
       fill="#0056c0" /></g><g
     style="font-style:normal;font-weight:normal;font-size:798.799px;line-height:1.25;font-family:sans-serif;letter-spacing:0px;word-spacing:0px;fill:#ffffff;fill-opacity:1;stroke:none;stroke-width:19.9699"
     id="text842"
     transform="rotate(90,0.6245975,-0.6246025)"
     aria-label="("><path
       id="path847"
       style="fill:#ffffff;stroke-width:21.1298"
       d="m 266.48654,-910.23557 q -52.26517,100.43222 -77.61768,198.68114 -25.35251,98.2489 -25.35251,199.11778 0,100.86887 25.35251,199.99109 25.74255,98.68557 77.61768,198.68112 h -62.40618 q -58.50578,-102.61553 -87.75868,-201.73775 -28.862852,-99.12223 -28.862852,-196.93447 0,-97.37559 28.862852,-196.06115 28.86286,-98.68557 87.75868,-201.73776 z" /></g><g
     aria-label="("
     transform="matrix(0,-1,-1,0,-5e-6,1025.2492)"
     id="g852"
     style="font-style:normal;font-weight:normal;font-size:798.799px;line-height:1.25;font-family:sans-serif;letter-spacing:0px;word-spacing:0px;fill:#ffffff;fill-opacity:1;stroke:none;stroke-width:19.9699"><path
       d="m 266.48654,-910.23557 q -52.26517,100.43222 -77.61768,198.68114 -25.35251,98.2489 -25.35251,199.11778 0,100.86887 25.35251,199.99109 25.74255,98.68557 77.61768,198.68112 h -62.40618 q -58.50578,-102.61553 -87.75868,-201.73775 -28.862852,-99.12223 -28.862852,-196.93447 0,-97.37559 28.862852,-196.06115 28.86286,-98.68557 87.75868,-201.73776 z"
       style="fill:#ffffff;stroke-width:21.1298"
       id="path850" /></g></svg>
