<?xml version="1.0" encoding="UTF-8" standalone="no"?>
<svg
   xmlns:dc="http://purl.org/dc/elements/1.1/"
   xmlns:cc="http://creativecommons.org/ns#"
   xmlns:rdf="http://www.w3.org/1999/02/22-rdf-syntax-ns#"
   xmlns:svg="http://www.w3.org/2000/svg"
   xmlns="http://www.w3.org/2000/svg"
   xmlns:sodipodi="http://sodipodi.sourceforge.net/DTD/sodipodi-0.dtd"
   xmlns:inkscape="http://www.inkscape.org/namespaces/inkscape"
   width="1073.3334"
   height="433.33334"
   viewBox="0 0 805 325"
   version="1.1"
   id="svg45"
   sodipodi:docname="electron-cash-full-white.svg"
   inkscape:version="1.0 (4035a4fb49, 2020-05-01)"
   inkscape:export-filename="electron-cash-full-white.png"
   inkscape:export-xdpi="96"
   inkscape:export-ydpi="96">
  <metadata
     id="metadata51">
    <rdf:RDF>
      <cc:Work
         rdf:about="">
        <dc:format>image/svg+xml</dc:format>
        <dc:type
           rdf:resource="http://purl.org/dc/dcmitype/StillImage" />
        <dc:title />
      </cc:Work>
    </rdf:RDF>
  </metadata>
  <defs
     id="defs49" />
  <sodipodi:namedview
     units="px"
     inkscape:object-paths="true"
     inkscape:snap-smooth-nodes="true"
     inkscape:snap-intersection-paths="true"
     inkscape:document-rotation="0"
     pagecolor="#ffffff"
     bordercolor="#666666"
     borderopacity="1"
     objecttolerance="10"
     gridtolerance="10"
     guidetolerance="10"
     inkscape:pageopacity="0"
     inkscape:pageshadow="2"
     inkscape:window-width="1920"
     inkscape:window-height="1007"
     id="namedview47"
     showgrid="false"
     borderlayer="true"
     inkscape:showpageshadow="false"
     inkscape:pagecheckerboard="true"
     inkscape:zoom="0.94471222"
     inkscape:cx="487.33459"
     inkscape:cy="219.16912"
     inkscape:window-x="-9"
     inkscape:window-y="-9"
     inkscape:window-maximized="1"
     inkscape:current-layer="svg45" />
  <g
     id="g917">
    <g
       id="g878"
       transform="translate(0,0.19481692)">
      <path
         sodipodi:nodetypes="ccccccccc"
         style="fill:#ffffff;fill-opacity:1"
         id="path6"
         d="m 362.215,18.214686 c 0.81,-0.76 1.62,-1.53 2.44,-2.29 11.6,-0.02 23.19,0.02 34.79,-0.02 1.04,1.14 2.09,2.26 3.16,3.38 0.05,7.03 -0.03,14.06 0.06,21.1 -1.29,1.07 -2.56,2.14 -3.84,3.21 -11.2,-0.07 -22.39,-0.12 -33.59,-0.13 l -3.03,-2.04 c 0.06,-7.74 0.04,-15.47 0.01,-23.21"
         opacity="1"
         fill="#0056c0" />
      <path
         sodipodi:nodetypes="cccccccccccccc"
         style="fill:#ffffff;fill-opacity:1"
         id="path8"
         d="m 419.415,22.364686 c 4.4,-3.45 9.65,-6.44 15.41,-6.4 35.35,-0.25 70.71,-0.04 106.06,-0.01 4.99,0.04 10.02,-0.23 14.98,0.55 13.03,2.6 24.67,13.52 26.01,27.09 -40.34,0.11 -80.7,-0.42 -121.02,0.32 -7.3,-0.04 -14.6,0.11 -21.89,-0.2 -0.66,0.98 -1.95,1.78 -1.78,3.12 -0.08,22.18 -0.11,44.36 -0.13,66.550004 -1.13,1.09 -2.25,2.19 -3.36,3.29 -7.55,0.02 -15.1,0.09 -22.64,0.08 -1.11,-1.03 -2.2,-2.06 -3.3,-3.08 0.05,-23.320004 0.05,-46.650004 0.14,-69.970004 -0.17,-8.57 5.21,-16.05 11.52,-21.34"
         opacity="1"
         fill="#0056c0" />
    </g>
    <path
       id="path10"
       style="fill:#ffffff;fill-opacity:1;stroke-width:0.999997"
       d="m 636.33348,15.013965 c -3.69392,-0.01423 -7.38955,0.370019 -11.0083,1.176269 -15.22,3.53 -28.97945,13.86914 -35.68945,28.11914 -7.09,14.33 -6.60133,32.170037 1.38867,46.040034 5.32,9.720002 13.97108,17.540492 24.10107,22.000492 21.00001,9.55 48.39981,3.40996 62.29981,-15.290039 7.01,-8.900003 11.3097,-20.109296 10.9497,-31.529296 0.15,-10.850001 -4.00044,-21.41 -10.46045,-29.999999 -9.59562,-12.926875 -25.57407,-20.454934 -41.58105,-20.516601 z m -0.39843,29.582518 c 10.75279,-0.178418 21.38345,7.986543 22.9497,18.862793 1.74,9.309999 -3.68031,18.93123 -12.07031,23.01123 -4.56,2.64 -9.96879,2.239005 -15.00879,1.979002 -9.53,-1.659997 -17.45026,-10.239959 -18.01025,-19.959959 -1.03001,-10.77 7.17029,-20.989551 17.55029,-23.28955 1.515,-0.3825 3.05324,-0.578027 4.58936,-0.603516 z"
       sodipodi:nodetypes="scccccccsscccccs" />
    <path
       fill="#0056c0"
       opacity="1"
       d="m 106.045,18.989863 c 1.05,-0.93 2.1,-1.87 3.14,-2.81 h 22.68 c 1.1,0.99 2.21,1.97 3.31,2.96 -0.02,22.64 0.22,45.28 0.17,67.92 1.02,0.8 2.07,1.82 3.49,1.65 9.94,-0.03 19.87,-0.05 29.81,-0.08 0.92,0.86 1.84,1.73 2.76,2.59 -0.05,7.69 -0.02,15.380007 -0.03,23.080007 -0.87,0.74 -1.73,1.49 -2.58,2.24 -11.97,-0.01 -23.94,0 -35.9,-0.04 -6.11,0.22 -11.49,-3.27 -16.02,-6.98 -5.91,-4.96 -10.61,-12.040007 -10.73,-19.970007 -0.13,-23.52 -0.02,-47.04 -0.1,-70.56"
       id="path14"
       style="fill:#ffffff;fill-opacity:1"
       sodipodi:nodetypes="cccccccccccccc" />
    <path
       fill="#0056c0"
       opacity="1"
       d="m 303.065,19.919863 c 5.85,-2.86 12.43,-3.68 18.88,-3.73 12.97,-0.07 25.95,-0.06 38.93,-0.06 v 27.98 c -13.17,-0.01 -26.35,-0.21 -39.52,0.01 -12.9,0.71 -22.28,14.95 -19.23,27.18 2.81,9.07 10.7,17.62 20.7,17.84 12.68,-0.03 25.37,-0.08 38.05,-0.05 v 27.470007 c -14.37,-0.09 -28.74,0.21 -43.1,-0.21 -19.4,-1.63 -35.42,-16.960007 -41.79,-34.780007 -5.27,-15.64 -1.66,-33.52 8.41,-46.45 5.17,-6.21 11.43,-11.57 18.67,-15.2"
       id="path16"
       style="fill:#ffffff;fill-opacity:1"
       sodipodi:nodetypes="ccccccccccccc" />
    <g
       id="g882"
       transform="translate(7.0503857e-7,-0.19482349)">
      <path
         sodipodi:nodetypes="ccccccccccc"
         style="fill:#ffffff;fill-opacity:1"
         id="path12"
         d="m 772.395,15.984686 c 7.14,-0.11 14.28,0.07 21.42,0.05 1.16,1.27 2.31,2.54 3.48,3.81 -0.03,31.5 0.03,63.01 -0.03,94.510004 -0.85,0.79 -1.69,1.59 -2.52,2.39 -4.19,0.01 -8.37,0.02 -12.55,0 -12.26,-13.97 -24.53,-27.930004 -36.9,-41.800004 0.05,-5.46 0.07,-10.93 0.15,-16.4 7.79,-0.34 15.58,-0.2 23.38,-0.3 0.12,-12.19 -0.04,-24.38 0.12,-36.57 -0.09,-2.41 2.24,-3.86 3.45,-5.69"
         opacity="1"
         fill="#0056c0" />
      <path
         sodipodi:nodetypes="ccccccccccc"
         style="fill:#ffffff;fill-opacity:1"
         id="path18"
         d="m 691.285,19.224686 c 0.88,-0.84 1.77,-1.69 2.67,-2.54 4.19,-0.02 8.38,-0.01 12.58,-0.01 12.02,13.74 24.34,27.23 36.37,40.97 -0.04,5.82 -0.12,11.63 -0.24,17.45 -7.56,0.16 -15.11,0.16 -22.65,0.22 -0.1,12.19 -0.05,24.37 -0.16,36.560004 0.1,2.1 -1.92,3.36 -3.02,4.9 -7.6,-0.04 -15.2,-0.01 -22.8,-0.02 -0.91,-0.92 -1.82,-1.83 -2.72,-2.75 -0.05,-31.590004 0.01,-63.180004 -0.03,-94.780004"
         opacity="1"
         fill="#0056c0" />
    </g>
    <path
       fill="#0056c0"
       opacity="1"
       d="m 511.245,51.939863 c 23.34,0.17 46.69,-0.12 70.03,0.34 -1.15,8.34 -5.15,16.68 -12.21,21.56 -5.71,3.95 -12.62,5.71 -19.46,6.35 10.33,10.21 20.48,20.610007 30.88,30.760007 0.01,1.86 0.03,3.73 0.06,5.6 -10.59,0.03 -21.18,0 -31.77,0.01 -13.76,-13.89 -27.25,-28.050007 -40.94,-42.000007 v -18.97 c 1.14,-1.21 2.27,-2.43 3.41,-3.65"
       id="path22"
       style="fill:#ffffff;fill-opacity:1"
       sodipodi:nodetypes="cccccccccc" />
    <g
       id="g870"
       transform="translate(7.0503857e-7,-0.19482349)">
      <path
         sodipodi:nodetypes="ccccccccc"
         style="fill:#ffffff;fill-opacity:1"
         id="path2"
         d="m 12.155004,15.784686 c 27.58,0 55.16,0.02 82.74,-0.01 2.79,-0.41 4.83,1.77 6.979996,3.14 0,7.6 0,15.21 0.01,22.82 -1.929996,1.16 -3.529996,3.39 -5.939996,3.35 -27.4,0 -54.8,0 -82.2,0.02 -2.45,0.18 -4.1699996,-1.94 -6.0399996,-3.2 0.09,-7.55 0,-15.1 0.05,-22.65 1.48,-1.14 2.9399996,-2.3 4.3999996,-3.47"
         opacity="1"
         fill="#0056c0" />
      <path
         sodipodi:nodetypes="cccccccccccccc"
         style="fill:#ffffff;fill-opacity:1"
         id="path24"
         d="m 7.7350044,55.944686 c 1.5,-1.18 2.9999996,-2.35 4.4799996,-3.55 26.63,0.09 53.25,-0.11 79.87,0.15 -0.97,9.86 -6.6,19.36 -15.56,23.92 -10.88,5.74 -23.58,3.68 -35.38,4.14 v 9.25 c 18.75,0.04 37.5,0.02 56.25,0.15 1.45,1.62 2.949996,3.21 4.459996,4.79 -0.06,6.060004 0.15,12.130004 -0.05,18.180004 -1.28,1.61 -2.989996,2.81 -4.519996,4.16 -25.81,-0.08 -51.63,-0.02 -77.44,-0.03 -2.57,-0.08 -5.2,0.25 -7.73,-0.21 -1.56,-0.94 -2.9499996,-2.11 -4.3799996,-3.22 0.01,-19.240004 0.01,-38.490004 0,-57.730004"
         opacity="1"
         fill="#0056c0" />
    </g>
    <g
       id="g874"
       transform="translate(7.0503857e-7,-0.19482349)">
      <path
         sodipodi:nodetypes="ccccccccc"
         style="fill:#ffffff;fill-opacity:1"
         id="path4"
         d="m 179.995,15.794686 c 27.66,-0.03 55.31,0.01 82.97,-0.01 2.69,-0.32 4.61,1.88 6.7,3.19 -0.07,7.56 -0.05,15.13 -0.02,22.69 -1.52,1.14 -3.04,2.29 -4.55,3.44 -27.75,-0.04 -55.49,-0.01 -83.24,0 -2.57,0.29 -4.39,-1.84 -6.38,-3.08 0.04,-7.62 0.01,-15.24 0.01,-22.86 1.52,-1.1 3.02,-2.23 4.51,-3.37"
         opacity="1"
         fill="#0056c0" />
      <path
         sodipodi:nodetypes="ccccccccccccccc"
         style="fill:#ffffff;fill-opacity:1"
         id="path26"
         d="m 175.465,55.974686 c 1.52,-1.21 3.04,-2.41 4.58,-3.59 26.6,0.1 53.21,-0.09 79.81,0.14 -1,9.49 -6.13,18.78 -14.66,23.43 -11.01,6.38 -24.2,4.15 -36.32,4.67 v 9.21 c 18.65,0.11 37.31,-0.02 55.95,0.2 1.87,1.25 3.22,3.12 4.79,4.72 -0.01,6.180004 0,12.360004 0.01,18.550004 -1.53,1.25 -3.04,2.52 -4.55,3.8 -28.35,0 -56.71,-0.04 -85.06,0.02 -1.53,-1.15 -3.04,-2.33 -4.54,-3.51 0.02,-19.220004 0.03,-38.430004 -0.01,-57.640004 m 55.4,19.79 c -153.993329,-46.673333 -76.99667,-23.336667 0,0 z"
         opacity="1"
         fill="#0056c0" />
    </g>
    <path
       fill="#0056c0"
       opacity="1"
       d="m 473.625,55.739863 c 0.97,-1.17 1.94,-2.35 2.92,-3.53 7.57,0.02 15.13,0.03 22.7,-0.01 1.15,1.26 2.31,2.51 3.48,3.76 -0.04,18.93 -0.04,37.86 -0.02,56.790007 -1.03,1.31 -2.05,2.63 -3.07,3.95 -7.59,-0.14 -15.18,-0.13 -22.76,-0.23 -1.09,-1.01 -2.17,-2.03 -3.25,-3.04 0.04,-19.230007 0,-38.460007 0,-57.690007"
       id="path28"
       style="fill:#ffffff;fill-opacity:1"
       sodipodi:nodetypes="ccccccccc" />
    <path
       fill="#0056c0"
       opacity="1"
       d="m 147.47729,152.89951 c 8.76,-4.07 18.47,-5.53 28.06,-5.57 21.45,-0.08 42.9,-0.12 64.34,-0.12 -0.12,15.06 0.01,30.12 -0.06,45.18 -20.1,-0.08 -40.2,-0.05 -60.3,-0.07 -22.5,-1.12 -40.52,24.04 -34.36,45.21 3.48,11.37 12.19,20.73 22.77,25.97 3.28,1.58 6.96,2.2 10.59,2.14 20.56,-0.1 41.11,-0.01 61.67,-0.09 -0.02,14.81 -0.01,29.61 -0.01,44.42 h -55.58 c -8.62,0.03 -17.41,0.24 -25.76,-2.25 -20.72,-5.71 -38.3,-20.48 -49.04,-38.92 -8.87,-14.58 -12.449999,-32.06 -10.740002,-48.99 3.380002,-28.56 22.130002,-55 48.420002,-66.91"
       id="path32"
       style="fill:#ffffff;fill-opacity:1"
       sodipodi:nodetypes="ccccccccccccccc" />
    <path
       id="path34"
       style="fill:#ffffff;fill-opacity:1;stroke-width:0.999997"
       d="m 558.76798,146.9564 c -30.76,0.03 -61.53126,0.0694 -92.30126,0.14942 -40.88001,0.03 -77.63957,37.28068 -77.05958,78.20068 v 3.22559 3.22412 h 124.18945 c -0.0539,10.15599 -5.81259,19.47286 -13.5,25.76073 -5.58,4.48001 -12.3189,8.00983 -19.6289,8.06983 -30.36,0.06 -60.7208,0.009 -91.0708,-0.041 -0.1,14.79999 -0.0196,29.61113 -0.0395,44.41113 28.39,0 56.78041,0.01 85.17041,-0.0103 8.59,0.09 17.32916,-0.0608 25.63916,-2.51074 32.98,-9.14 59.01031,-41.01969 58.57031,-75.67968 v -3.22412 -3.22559 H 434.61662 c 0.24,-15.48 12.70005,-28.73025 27.06006,-33.01026 11.1,-1.08 22.40072,0.44975 33.49072,-0.76025 21.19999,-0.28 42.40937,0.0104 63.60937,-0.0395 -0.01,-14.85 0.002,-29.69004 -0.009,-44.54004 z" />
    <g
       id="g890"
       transform="translate(7.0503857e-7,0.20172164)">
      <path
         sodipodi:nodetypes="ccccccc"
         style="fill:#ffffff;fill-opacity:1"
         id="path36"
         d="m 590.60729,147.26469 c 6.57,-1.06 13.26,-0.56 19.89,-0.68 -0.02,13.01 -0.11,26.02 -0.09,39.03 -2.26,1.98 -4.11,4.62 -6.75,6.05 -12.69,0.23 -25.38,-0.01 -38.07,0.01 0.08,-11.42 1.12,-23.64 7.67,-33.37 4.18,-5.58 10.29,-10.1 17.35,-11.04"
         opacity="1"
         fill="#0056c0" />
      <path
         sodipodi:nodetypes="ccccccccccc"
         style="fill:#ffffff;fill-opacity:1"
         id="path38"
         d="m 661.41729,146.37469 c 14.98,-0.04 29.96,0.05 44.94,-0.05 -0.03,54.47 -0.01,108.95 -0.01,163.43 h -44.96 c 0,-19.74 -0.01,-39.47 0,-59.21 -16.94,0.04 -33.88,0.01 -50.82,0.02 -0.01,19.73 0,39.46 0,59.19 h -45.02 v -103.98 c 31.95,0.01 63.89,0 95.83,0.01 0.03,-19.81 -0.05,-39.61 0.04,-59.41"
         opacity="1"
         fill="#0056c0" />
    </g>
    <g
       id="g886"
       transform="translate(7.0503857e-7,0.20172164)">
      <path
         sodipodi:nodetypes="ccccccccccccc"
         style="fill:#ffffff;fill-opacity:1"
         id="path30"
         d="m 307.87729,145.90469 c 4.93,0.04 9.87,0.02 14.8,0.01 1.67,1.83 3.99,3.3 4.74,5.79 12.48,37.22 25.02,74.42 37.51,111.64 -1.28,1.38 -2.55,2.78 -3.8,4.2 -12.6,-0.05 -25.2,0.03 -37.8,0.01 -2.28,-7.15 -4.48,-14.33 -6.86,-21.45 l -4.71,0.03 c -7.58,21.18 -15.12,42.38 -22.62,63.59 -13.29,0.12 -26.58,0.01 -39.87,0.06 -1.53,-1.55 -3.06,-3.1 -4.6,-4.63 19.24,-51.14 38.54,-102.25 57.75,-153.4 0.88,-2.65 3.56,-4 5.46,-5.85"
         opacity="1"
         fill="#0056c0" />
      <path
         sodipodi:nodetypes="cccccccc"
         style="fill:#ffffff;fill-opacity:1"
         id="path42"
         d="m 304.64729,269.97469 c 1.29,0.18 2.59,0.29 3.91,0.33 17,-0.39 34.02,-0.1 51.03,-0.22 3.06,-0.16 5.9,1.14 8.77,2.01 5.39,12.53 10.69,25.11 15.99,37.68 -10.93,-0.02 -21.86,0.03 -32.79,-0.02 -12.21,-0.4 -24.98,-3.33 -34.54,-11.34 -8.35,-6.86 -12.01,-17.92 -12.37,-28.44"
         opacity="1"
         fill="#0056c0" />
    </g>
  </g>
</svg>
