<?xml version="1.0" encoding="UTF-8" standalone="no"?>
<svg
   xmlns:dc="http://purl.org/dc/elements/1.1/"
   xmlns:cc="http://creativecommons.org/ns#"
   xmlns:rdf="http://www.w3.org/1999/02/22-rdf-syntax-ns#"
   xmlns:svg="http://www.w3.org/2000/svg"
   xmlns="http://www.w3.org/2000/svg"
   xmlns:sodipodi="http://sodipodi.sourceforge.net/DTD/sodipodi-0.dtd"
   xmlns:inkscape="http://www.inkscape.org/namespaces/inkscape"
   width="1073.3334"
   height="300"
   viewBox="0 0 805 224.99999"
   version="1.1"
   id="svg45"
   sodipodi:docname="electron-cash-full-white.svg"
   inkscape:version="1.0 (4035a4fb49, 2020-05-01)"
   inkscape:export-filename="electron-cash-full-white.png"
   inkscape:export-xdpi="96"
   inkscape:export-ydpi="96">
  <metadata
     id="metadata51">
    <rdf:RDF>
      <cc:Work
         rdf:about="">
        <dc:format>image/svg+xml</dc:format>
        <dc:type
           rdf:resource="http://purl.org/dc/dcmitype/StillImage" />
        <dc:title></dc:title>
      </cc:Work>
    </rdf:RDF>
  </metadata>
  <defs
     id="defs49" />
  <sodipodi:namedview
     units="px"
     inkscape:object-paths="true"
     inkscape:snap-smooth-nodes="true"
     inkscape:snap-intersection-paths="true"
     inkscape:document-rotation="0"
     pagecolor="#ffffff"
     bordercolor="#666666"
     borderopacity="1"
     objecttolerance="10"
     gridtolerance="10"
     guidetolerance="10"
     inkscape:pageopacity="0"
     inkscape:pageshadow="2"
     inkscape:window-width="1920"
     inkscape:window-height="1007"
     id="namedview47"
     showgrid="false"
     borderlayer="true"
     inkscape:showpageshadow="false"
     inkscape:pagecheckerboard="true"
     inkscape:zoom="0.66801242"
     inkscape:cx="393.23823"
     inkscape:cy="107.8243"
     inkscape:window-x="-9"
     inkscape:window-y="-9"
     inkscape:window-maximized="1"
     inkscape:current-layer="svg45" />
  <g
     style="fill:#ffffff"
     id="g1029">
    <g
       transform="translate(3.4886298e-4,-1.7843652e-4)"
       style="font-style:normal;font-weight:normal;font-size:112.344px;line-height:1.25;font-family:sans-serif;letter-spacing:0px;word-spacing:0px;fill:#ffffff;fill-opacity:1;stroke:none;stroke-width:2.80861"
       id="text865"
       aria-label="CASH">
      <path
         transform="scale(0.74999999)"
         d="m 166.86719,139.39062 c -10.33721,10e-6 -19.1625,3.70561 -26.47657,11.11719 -7.31406,7.21654 -10.9707,15.99482 -10.9707,26.33203 h 56.17188 110.73437 v -37.44922 z m -37.44727,56.49805 v 55.84571 c 0,10.3372 3.65664,19.16445 10.9707,26.47851 7.21655,7.31406 16.04184,10.9707 26.47657,10.9707 H 297.93555 V 251.73438 H 185.5918 c -5.16861,0 -9.60672,-1.80384 -13.3125,-5.41211 -3.60828,-3.70579 -5.41211,-8.14195 -5.41211,-13.31055 v -37.12305 z"
         style="font-style:normal;font-variant:normal;font-weight:normal;font-stretch:normal;font-family:'Future Earth';-inkscape-font-specification:'Future Earth';fill:#ffffff;fill-opacity:1;stroke-width:3.74481"
         id="path892" />
      <path
         transform="scale(0.74999999)"
         d="m 419.64258,137.05078 c -12.97028,0.39009 -23.11367,4.29154 -30.42774,11.70313 -2.43801,2.34049 -4.7785,5.46049 -7.02148,9.36132 l -65.5332,131.06836 h 46.80859 l 14.04297,-28.08593 14.04492,-28.08594 24.28125,-48.71289 c 1.07274,-1.65786 2.34188,-2.48633 3.80469,-2.48633 1.46281,0 2.68104,0.82847 3.65625,2.48633 l 24.42969,48.71289 h -37.12305 l -14.04297,28.08594 h 65.20898 l 14.04297,28.08593 h 46.8086 L 457.08984,158.11523 c -2.24297,-3.90083 -4.58345,-7.02083 -7.02148,-9.36132 -7.21653,-7.41159 -17.35799,-11.31304 -30.42578,-11.70313 z"
         style="font-style:normal;font-variant:normal;font-weight:normal;font-stretch:normal;font-family:'Future Earth';-inkscape-font-specification:'Future Earth';fill:#ffffff;fill-opacity:1;stroke-width:3.74481"
         id="path894" />
      <path
         id="path896"
         style="font-style:normal;font-variant:normal;font-weight:normal;font-stretch:normal;font-family:'Future Earth';-inkscape-font-specification:'Future Earth';fill:#ffffff;fill-opacity:1;stroke-width:2.80861"
         d="m 402.50002,216.88733 v -28.086 h 108.83325 q 2.85248,0 4.93699,-1.9748 2.08451,-2.08451 2.08451,-5.0467 0,-2.85249 -2.08451,-4.93699 -2.08451,-2.08451 -4.93699,-2.08451 h -91.2795 q -5.81468,0 -9.9837,-4.05931 -4.0593,-4.16901 -4.0593,-9.98369 v -42.01929 q 0,-5.81468 4.0593,-9.9837 4.16902,-4.16901 9.9837,-4.16901 h 122.87625 v 28.086 H 441.11827 q -2.9622,0 -5.04671,2.08451 -1.97479,2.0845 -1.97479,4.93699 0,2.96219 1.97479,5.0467 2.08451,1.9748 5.04671,1.9748 h 91.2795 q 5.70497,0 9.87398,4.16901 4.16902,4.16902 4.16902,9.87399 v 42.129 q 0,5.81468 -4.16902,9.98369 -4.16901,4.05931 -9.87398,4.05931 z" />
      <path
         transform="scale(0.74999999)"
         d="m 793.79688,139.39062 c -24.45503,0.0814 -37.20012,12.07858 -37.12305,37.12305 h 37.44726 v -37.12305 z m 112.66796,0 v 56.17188 h -77.27148 -35.07227 -37.44726 v 93.62109 h 37.44726 v -56.17187 h 112.34375 v 56.17187 h 37.44922 V 139.39062 Z"
         style="font-style:normal;font-variant:normal;font-weight:normal;font-stretch:normal;font-family:'Future Earth';-inkscape-font-specification:'Future Earth';fill:#ffffff;fill-opacity:1;stroke-width:3.74481"
         id="path898" />
    </g>
    <g
       style="fill:#ffffff"
       transform="translate(3.4886298e-4,-1.7843652e-4)"
       id="g1013">
      <path
         id="path875"
         style="font-style:normal;font-variant:normal;font-weight:normal;font-stretch:normal;font-size:71.438px;line-height:1.25;font-family:'Future Earth';-inkscape-font-specification:'Future Earth';letter-spacing:0px;word-spacing:0px;fill:#ffffff;fill-opacity:1;stroke:none;stroke-width:2.38128"
         d="m 45.53125,12.304688 c -6.573289,0 -12.186979,2.357388 -16.837891,7.070312 -4.65091,4.5889 -6.976562,10.168897 -6.976562,16.742188 h 29.767578 73.390625 1.02344 v -23.8125 z m -23.814453,35.71875 v 35.720703 c 0,6.573289 2.325652,12.185024 6.976562,16.835939 4.5889,4.65091 10.20259,6.97656 16.837891,6.97656 H 128.875 V 83.744141 H 51.484375 c -1.674328,0 -3.101066,-0.559562 -4.279297,-1.675782 C 46.088859,80.89013 45.53125,79.463391 45.53125,77.789062 v -5.953124 h 55.53125 c 15.68663,-0.05224 23.86197,-7.74779 23.8125,-23.8125 H 45.53125 Z"
         transform="scale(0.74999999)" />
      <path
         id="path877"
         style="font-style:normal;font-variant:normal;font-weight:normal;font-stretch:normal;font-size:71.438px;line-height:1.25;font-family:'Future Earth';-inkscape-font-specification:'Future Earth';letter-spacing:0px;word-spacing:0px;fill:#ffffff;fill-opacity:1;stroke:none;stroke-width:1.78596"
         d="m 127.91018,80.666885 q -7.46471,0 -12.62722,-5.232275 -5.23228,-5.232276 -5.23228,-12.627226 V 9.2288818 h 17.8595 V 53.877634 q 0,3.697475 2.58126,6.348495 2.65102,2.581255 6.34849,2.581255 h 53.5785 v 17.859501 z" />
      <path
         id="path881"
         style="font-style:normal;font-variant:normal;font-weight:normal;font-stretch:normal;font-size:71.438px;line-height:1.25;font-family:'Future Earth';-inkscape-font-specification:'Future Earth';letter-spacing:0px;word-spacing:0px;fill:#ffffff;fill-opacity:1;stroke:none;stroke-width:2.38128"
         d="m 420.58008,12.304688 c -6.57329,0 -12.18502,2.357388 -16.83594,7.070312 -4.65091,4.5889 -6.97656,10.168898 -6.97656,16.742188 h 35.71875 35.20703 35.20703 v -23.8125 z m -23.8125,35.71875 v 35.720703 c 0,6.573289 2.32565,12.185025 6.97656,16.835939 4.58891,4.65091 10.20064,6.97656 16.83594,6.97656 h 83.34375 V 83.744141 h -71.4375 c -3.28665,0 -6.10838,-1.148911 -8.46485,-3.44336 -2.29444,-2.356462 -3.4414,-5.178199 -3.4414,-8.464843 v -23.8125 z"
         transform="scale(0.74999999)" />
      <path
         id="path883"
         style="font-style:normal;font-variant:normal;font-weight:normal;font-stretch:normal;font-size:71.438px;line-height:1.25;font-family:'Future Earth';-inkscape-font-specification:'Future Earth';letter-spacing:0px;word-spacing:0px;fill:#ffffff;fill-opacity:1;stroke:none;stroke-width:2.38128"
         d="m 515.83008,12.304688 v 23.8125 h 47.625 23.81445 47.625 v -23.8125 z m 47.625,35.71875 v 59.533202 h 23.81445 V 48.023438 Z"
         transform="scale(0.74999999)" />
      <path
         id="path885"
         style="font-style:normal;font-variant:normal;font-weight:normal;font-stretch:normal;font-size:71.438px;line-height:1.25;font-family:'Future Earth';-inkscape-font-specification:'Future Earth';letter-spacing:0px;word-spacing:0px;fill:#ffffff;fill-opacity:1;stroke:none;stroke-width:2.38128"
         d="m 646.80078,12.304688 v 23.8125 h 23.8125 65.48438 29.76562 v -11.90625 c 0,-3.224633 -1.17869,-6.014632 -3.53516,-8.371094 -2.35646,-2.356462 -5.14646,-3.535156 -8.37109,-3.535156 z m 0,35.71875 v 59.533202 h 23.8125 V 71.835938 h 62.50781 c 3.22463,0 6.01464,1.178693 8.3711,3.535156 1.30226,1.302255 2.23291,2.760731 2.79101,4.373047 l 4.65039,27.812499 h 25.85938 l -5.95313,-23.812499 c -0.74414,-2.85256 -1.45653,-5.116688 -2.13867,-6.791016 -0.55811,-1.426279 -1.17919,-2.573236 -1.86133,-3.441406 -0.86817,-1.240243 -1.89012,-2.418938 -3.06836,-3.535157 -2.0464,-2.108413 -4.31052,-3.751456 -6.79101,-4.929687 1.36427,-0.868171 2.63622,-1.921867 3.81445,-3.162109 3.99063,-3.885615 6.28489,-8.508501 6.89649,-13.861328 h -29.59375 -65.48438 z"
         transform="scale(0.74999999)" />
      <path
         id="path887"
         style="font-style:normal;font-variant:normal;font-weight:normal;font-stretch:normal;font-size:71.438px;line-height:1.25;font-family:'Future Earth';-inkscape-font-specification:'Future Earth';letter-spacing:0px;word-spacing:0px;fill:#ffffff;fill-opacity:1;stroke:none;stroke-width:1.78596"
         d="m 650.30058,62.807384 q 3.62771,0 6.27873,-2.581255 2.65102,-2.65102 2.65102,-6.348495 V 36.018133 q 0,-3.627711 -2.65102,-6.278731 -2.65102,-2.651019 -6.27873,-2.651019 h -35.719 q -3.69748,0 -6.3485,2.651019 -2.58125,2.65102 -2.58125,6.278731 v 17.859501 q 0,3.697475 2.58125,6.348495 2.65102,2.581255 6.3485,2.581255 z m -44.64875,17.859501 q -7.46472,0 -12.62723,-5.232275 -5.23227,-5.232276 -5.23227,-12.627226 V 27.088383 q 0,-7.39495 5.23227,-12.557462 5.23228,-5.3020392 12.62723,-5.3020392 h 53.5785 q 7.39495,0 12.55746,5.3020392 5.30204,5.232276 5.30204,12.557462 v 35.719001 q 0,7.464714 -5.30204,12.627226 -5.23227,5.232275 -12.55746,5.232275 z" />
      <path
         id="path889"
         style="font-style:normal;font-variant:normal;font-weight:normal;font-stretch:normal;font-size:71.438px;line-height:1.25;font-family:'Future Earth';-inkscape-font-specification:'Future Earth';letter-spacing:0px;word-spacing:0px;fill:#ffffff;fill-opacity:1;stroke:none;stroke-width:1.78596"
         d="M 690.48446,80.666885 V 25.972164 q 0,-7.39495 5.23228,-12.557462 5.23228,-5.302039 12.62723,-5.302039 v 0 q 8.09258,0.4185821 13.39462,5.581094 1.67433,1.534801 44.64875,44.648752 1.67433,1.674328 3.34866,0 1.11622,-1.395273 1.11622,-3.348656 V 9.2288818 h 17.8595 V 63.923603 q 0,7.464714 -5.30204,12.627226 -5.23228,5.232275 -12.55746,5.232275 v 0 q -8.09259,-0.558109 -13.39463,-5.581094 -1.67433,-1.534801 -44.64875,-44.648752 -1.67433,-1.674328 -3.34866,0 -1.11621,1.395273 -1.11621,3.348656 v 45.764971 z" />
      <path
         id="path924"
         style="font-style:normal;font-variant:normal;font-weight:normal;font-stretch:normal;font-size:71.438px;line-height:1.25;font-family:'Future Earth';-inkscape-font-specification:'Future Earth';letter-spacing:0px;word-spacing:0px;fill:#ffffff;fill-opacity:1;stroke:none;stroke-width:2.38128"
         d="m 295.5625,12.304688 c -6.57329,0 -12.18698,2.357388 -16.83789,7.070312 -4.65092,4.5889 -6.97656,10.168897 -6.97656,16.742188 h 29.76757 73.39063 1.02344 v -23.8125 z m -23.81445,35.71875 v 35.720703 c 0,6.573289 2.32564,12.185024 6.97656,16.835939 4.58889,4.65091 10.20258,6.97656 16.83789,6.97656 h 83.34375 V 83.744141 h -77.39063 c -1.67433,0 -3.10107,-0.559562 -4.27929,-1.675782 -1.11623,-1.178229 -1.67383,-2.604968 -1.67383,-4.279297 v -5.953124 h 55.5332 c 15.68663,-0.05224 23.86002,-7.74779 23.81055,-23.8125 H 295.5625 Z"
         transform="scale(0.74999999)" />
    </g>
  </g>
</svg>
